# xmcd
#
# Track frame offsets: 
#        150
#        15073
#        34865
#        57800
#        76175
#        100845
#        117513
#        135023
#        154283
#        178575
#
# Disc length: 2544 seconds
#
# Revision: 2
# Processed by: cddbd v1.5.2PL0 Copyright (c) Steve Scherf et al.
# Submitted via: ExactAudioCopy v0.99pb5
#
DISCID=6a09ee0a
DTITLE=Barry White - Barry and Glodean
DYEAR=1981
DGENRE=R&B
TTITLE0=Our Theme - Part I
TTITLE1=I Want You
TTITLE2=You're The Only One For Me
TTITLE3=This Love
TTITLE4=(The) Better Love Is (The Worse It Is When It's Over)
TTITLE5=You
TTITLE6=We Can't Let Go Of Love
TTITLE7=You Make My Life Easy Livin'
TTITLE8=Didn't We Make It Happen, Baby
TTITLE9=Our Theme - Part II
EXTD=
EXTT0=
EXTT1=
EXTT2=
EXTT3=
EXTT4=
EXTT5=
EXTT6=
EXTT7=
EXTT8=
EXTT9=
PLAYORDER=
